HIERARCHY
ROOT hip
{
  OFFSET 0 0 0
  CHANNELS 6 Xposition Yposition Zposition Zrotation Yrotation Xrotation
  JOINT abdomen
  {
    OFFSET 0 20.6881 -0.73152
    CHANNELS 3 Zrotation Xrotation Yrotation
    JOINT chest
    {
      OFFSET 0 11.7043 -0.48768
      CHANNELS 3 Zrotation Xrotation Yrotation
      JOINT neck
      {
        OFFSET 0 22.1894 -2.19456
        CHANNELS 3 Zrotation Xrotation Yrotation
        JOINT head
        {
          OFFSET -0.24384 7.07133 1.2192
          CHANNELS 3 Zrotation Xrotation Yrotation
          JOINT leftEye
          {
            OFFSET 4.14528 8.04674 8.04672
            CHANNELS 3 Zrotation Xrotation Yrotation
            End Site
            {
              OFFSET 1 0 0
            }
          }
          JOINT rightEye
          {
            OFFSET -3.6576 8.04674 8.04672
            CHANNELS 3 Zrotation Xrotation Yrotation
            End Site
            {
              OFFSET 1 0 0
            }
          }
        }
      }
      JOINT rCollar
      {
        OFFSET -2.68224 19.2634 -4.8768
        CHANNELS 3 Zrotation Xrotation Yrotation
        JOINT rShldr
        {
          OFFSET -8.77824 -1.95073 1.46304
          CHANNELS 3 Zrotation Xrotation Yrotation
          JOINT rForeArm
          {
            OFFSET -28.1742 -1.7115 0.48768
            CHANNELS 3 Zrotation Xrotation Yrotation
            JOINT rHand
            {
              OFFSET -22.5879 0.773209 7.07136
              CHANNELS 3 Zrotation Xrotation Yrotation
              JOINT rThumb1
              {
                OFFSET -1.2192 -0.487915 3.41376
                CHANNELS 3 Zrotation Xrotation Yrotation
                JOINT rThumb2
                {
                  OFFSET -3.37035 -0.52449 3.41376
                  CHANNELS 3 Zrotation Xrotation Yrotation
                  End Site
                  {
                    OFFSET -1.78271 -1.18214 1.43049
                  }
                }
              }
              JOINT rIndex1
              {
                OFFSET -7.75947 0.938293 5.60832
                CHANNELS 3 Zrotation Xrotation Yrotation
                JOINT rIndex2
                {
                  OFFSET -2.54057 -0.884171 1.56538
                  CHANNELS 3 Zrotation Xrotation Yrotation
                  End Site
                  {
                    OFFSET -1.62519 -0.234802 1.16502
                  }
                }
              }
              JOINT rMid1
              {
                OFFSET -8.24714 1.18213 3.41376
                CHANNELS 3 Zrotation Xrotation Yrotation
                JOINT rMid2
                {
                  OFFSET -3.10165 -0.590103 1.0647
                  CHANNELS 3 Zrotation Xrotation Yrotation
                  End Site
                  {
                    OFFSET -2.48547 -0.328903 0.83742
                  }
                }
              }
              JOINT rRing1
              {
                OFFSET -8.82822 0.546677 1.51678
                CHANNELS 3 Zrotation Xrotation Yrotation
                JOINT rRing2
                {
                  OFFSET -2.60934 -0.819778 -0.0198488
                  CHANNELS 3 Zrotation Xrotation Yrotation
                  End Site
                  {
                    OFFSET -2.33842 -0.294052 0.168128
                  }
                }
              }
              JOINT rPinky1
              {
                OFFSET -8.27202 -0.0477905 -0.4584
                CHANNELS 3 Zrotation Xrotation Yrotation
                JOINT rPinky2
                {
                  OFFSET -1.82734 -0.647385 -0.700984
                  CHANNELS 3 Zrotation Xrotation Yrotation
                  End Site
                  {
                    OFFSET -1.69225 -0.51767 -0.607171
                  }
                }
              }
            }
          }
        }
      }
      JOINT lCollar
      {
        OFFSET 2.68224 19.2634 -4.8768
        CHANNELS 3 Zrotation Xrotation Yrotation
        JOINT lShldr
        {
          OFFSET 8.77824 -1.95073 1.46304
          CHANNELS 3 Zrotation Xrotation Yrotation
          JOINT lForeArm
          {
            OFFSET 28.1742 -1.7115 0.48768
            CHANNELS 3 Zrotation Xrotation Yrotation
            JOINT lHand
            {
              OFFSET 22.5879 0.773209 7.07136
              CHANNELS 3 Zrotation Xrotation Yrotation
              JOINT lThumb1
              {
                OFFSET 1.2192 -0.487915 3.41376
                CHANNELS 3 Zrotation Xrotation Yrotation
                JOINT lThumb2
                {
                  OFFSET 3.37035 -0.52449 3.41376
                  CHANNELS 3 Zrotation Xrotation Yrotation
                  End Site
                  {
                    OFFSET 1.78271 -1.18214 1.43049
                  }
                }
              }
              JOINT lIndex1
              {
                OFFSET 7.75947 0.938293 5.60832
                CHANNELS 3 Zrotation Xrotation Yrotation
                JOINT lIndex2
                {
                  OFFSET 2.54057 -0.884171 1.56538
                  CHANNELS 3 Zrotation Xrotation Yrotation
                  End Site
                  {
                    OFFSET 1.62519 -0.234802 1.16502
                  }
                }
              }
              JOINT lMid1
              {
                OFFSET 8.24714 1.18213 3.41376
                CHANNELS 3 Zrotation Xrotation Yrotation
                JOINT lMid2
                {
                  OFFSET 3.10165 -0.590103 1.0647
                  CHANNELS 3 Zrotation Xrotation Yrotation
                  End Site
                  {
                    OFFSET 2.48547 -0.328903 0.83742
                  }
                }
              }
              JOINT lRing1
              {
                OFFSET 8.82822 0.546677 1.51678
                CHANNELS 3 Zrotation Xrotation Yrotation
                JOINT lRing2
                {
                  OFFSET 2.60934 -0.819778 -0.0198488
                  CHANNELS 3 Zrotation Xrotation Yrotation
                  End Site
                  {
                    OFFSET 2.33842 -0.294052 0.168128
                  }
                }
              }
              JOINT lPinky1
              {
                OFFSET 8.27202 -0.0477905 -0.4584
                CHANNELS 3 Zrotation Xrotation Yrotation
                JOINT lPinky2
                {
                  OFFSET 1.82734 -0.647385 -0.700984
                  CHANNELS 3 Zrotation Xrotation Yrotation
                  End Site
                  {
                    OFFSET 1.69225 -0.51767 -0.607171
                  }
                }
              }
            }
          }
        }
      }
    }
  }
  JOINT rButtock
  {
    OFFSET -8.77824 4.35084 1.2192
    CHANNELS 3 Zrotation Xrotation Yrotation
    JOINT rThigh
    {
      OFFSET 0 -1.70687 -2.19456
      CHANNELS 3 Zrotation Xrotation Yrotation
      JOINT rShin
      {
        OFFSET 0 -36.8199 0.73152
        CHANNELS 3 Zrotation Xrotation Yrotation
        JOINT rFoot
        {
          OFFSET 0.73152 -45.1104 -5.12064
          CHANNELS 3 Zrotation Xrotation Yrotation
          End Site
          {
            OFFSET -1.1221 -3.69964 12.103
          }
        }
      }
    }
  }
  JOINT lButtock
  {
    OFFSET 8.77824 4.35084 1.2192
    CHANNELS 3 Zrotation Xrotation Yrotation
    JOINT lThigh
    {
      OFFSET 0 -1.70687 -2.19456
      CHANNELS 3 Zrotation Xrotation Yrotation
      JOINT lShin
      {
        OFFSET 0 -36.8199 0.73152
        CHANNELS 3 Zrotation Xrotation Yrotation
        JOINT lFoot
        {
          OFFSET -0.73152 -45.1104 -5.12064
          CHANNELS 3 Zrotation Xrotation Yrotation
          End Site
          {
            OFFSET 1.1221 -3.69964 12.103
          }
        }
      }
    }
  }
}
MOTION
Frames:	5
Frame Time:	0.03333
-39.385799999999996 67.9844 -9.349 7.997111 -84.889684 -2.129966 -8.767061 4.393709 -116.416185 2.347325 7.225773 100.061608 -15.159413 30.665027 -62.41044 36.415122 -0.828321 5.043989 0.000229 -0.0 -0.000687 0.000229 -0.0 -0.000687 -147.865404 28.559787 152.689711 113.445704 -32.327023 131.402506 43.067334 -35.276681 63.941776 -27.975098 58.79856 13.686994 177.781728 -19.531512 88.885064 -138.828268 14.202995 72.894737 0.184127 -0.30073 -0.103053 -164.210265 -17.546314 109.930092 -20.137938 39.00732 15.358471 173.359876 -58.976677 137.065444 -0.000887 -0.018684 -0.004603 11.350072 -20.257263 -2.457707 1.480872 4.003979 1.360139 -24.312281 -41.343151 -24.917494 85.537721 68.182479 -88.688839 104.456138 10.338267 -92.300701 9.928169 -40.174685 80.249987 -153.972024 -43.692139 -135.175021 -3.051629 -3.032251 0.38865 152.434354 -65.312719 -122.340883 1.957166 3.105319 -1.141237 113.696014 38.271332 -88.7746 160.098456 -4.901322 -142.968137 -2.542928 1.972122 -0.63388 145.123158 1.079678 179.469734 -10.130432 -0.127465 9.007352 148.241758 22.398203 144.470228 162.577913 55.82697 146.696348 -179.991893 75.750754 -0.00667 165.892089 6.593882 -114.555409 -73.959874 -33.27164 31.401073 5.749323 -73.866464 100.929915 -0.000255 -2.5e-05 -6.4e-05 3.843369 8.127678 32.203188 31.087052 38.315722 95.910664 -37.612124 1.198366 -97.621388
-39.400200000000005 67.98110000000001 -9.3125 8.825512 -84.980889 -2.871201 -10.934552 7.760514 1.037529 7.535602 -8.77155 -16.187201 -15.608456 31.469547 -73.544489 36.214186 6.032486 13.980506 -0.001195 -0.0 0.000342 -0.001195 -0.0 0.000342 -33.837515 -85.66572 -55.254922 -77.393801 -40.394167 -83.879392 -176.641104 -2.854896 -139.083354 -7.990344 25.650086 1.055555 116.309606 -50.010651 56.954537 -166.70984 -88.488859 160.511227 -161.900568 -36.243513 122.687522 -29.196477 49.511366 18.575912 -159.365074 -2.685383 142.597918 -7.483036 26.114063 6.446985 -145.121086 1.974473 -179.748796 11.654519 26.296497 -5.998105 6.229563 18.78912 5.575371 -24.605367 -41.271201 -24.950595 -4.239245 -44.742723 8.648248 88.058828 -26.826079 139.355867 -7.415938 -8.766516 72.428013 -163.482794 -27.619817 -142.07898 171.654134 -9.336003 -89.94943 -174.987793 -20.822698 -96.030852 -150.939619 -72.374538 -95.250394 166.82147 -32.797088 -115.351974 153.320311 13.628781 -138.862103 162.100428 -1.476246 -142.602839 66.264992 72.867743 -83.837469 159.830844 -0.83925 -176.213272 24.989328 -37.659363 24.060075 159.251431 55.729049 149.56954 179.999187 75.750564 0.0 164.921683 8.121784 1.876368 -33.649088 80.030443 -98.560794 73.809987 -19.562589 172.66158 -179.978587 75.748933 -0.014651 -152.51782 82.582973 34.583622 38.439122 27.843739 167.881204 149.46637 -10.847119 171.241031
-39.4488 67.9779 -9.3048 8.340044 -84.980004 -2.327664 -10.975703 7.769299 1.043226 7.532023 -8.766494 -16.120844 5.668586 26.375022 65.476123 -28.447973 -6.034177 -129.937807 -0.004515 -0.0 0.00421 0.000837 -0.0 -0.001508 -0.087839 0.524948 0.11706 20.98079 88.091079 45.096343 179.243334 80.856398 107.247755 167.350807 -24.313484 142.612294 4.005073 -3.987835 -0.479015 12.737418 -22.335067 -12.951215 -0.32923 0.529443 0.186211 -158.271485 -8.934616 110.078595 -170.282279 -36.723057 145.340821 -163.122745 -3.964094 142.904735 -78.571204 -72.042119 -95.867357 14.114955 27.601302 -1.048554 -25.539319 -38.085972 -24.601304 -22.344976 -40.111429 -23.923077 0.165417 0.979137 -0.219249 -73.905011 24.405854 -7.817553 172.955421 24.553904 -103.356044 -159.936703 -34.737378 -139.640487 121.364323 30.329611 -71.958169 55.326703 -7.91528 -37.987114 -159.643859 -69.973942 -102.39753 84.678158 54.139422 -70.619716 161.154019 -8.160649 -143.464766 -2.927665 0.827222 -0.471908 71.926695 72.973252 -89.772322 76.649738 83.202824 -85.548501 80.941341 -51.228781 79.358963 159.986221 55.891923 148.401167 -179.995957 75.748762 -0.002766 164.877983 8.058345 1.865063 0.503675 70.342983 21.011772 49.430969 -19.652255 -10.426545 -179.995957 75.748762 -0.002766 -148.6619 82.799345 -0.0 28.377191 41.446023 121.319651 -11.932881 68.274145 -116.458823
-39.498 67.9802 -9.2997 6.91455 -84.899391 -0.952313 -10.865036 7.827632 1.043604 7.517679 -8.758154 -16.107432 6.999819 28.864769 74.630699 -32.325325 -1.11923 -138.007618 0.003303 0.0 6.7e-05 0.003513 -0.0 -0.001698 -155.460007 -3.227835 161.777433 137.133577 -9.900133 165.660774 -5.614276 -7.42174 41.035204 -4.489839 15.415678 0.237744 3.051369 -3.032322 -0.389766 -132.437143 -29.751756 117.576817 -19.170467 24.114469 13.381188 -166.307034 -16.390426 110.464482 -86.295916 60.959947 77.856901 -168.96146 -22.734883 144.126489 -75.67277 -72.117157 -92.828609 14.612017 14.933226 -2.754387 -25.53837 -38.088142 -24.596596 24.461999 67.232351 8.245712 59.830793 -86.721543 81.631451 77.117746 -27.921762 91.830791 95.719645 -34.862317 115.31127 -23.414528 -45.598561 -14.322244 18.823751 16.880267 -5.604203 158.061754 -58.796356 -104.222478 27.419832 30.64015 -20.098033 39.272173 43.077708 -25.888342 0.968547 2.779932 -0.551268 88.690402 64.079899 -80.42822 145.118699 0.186209 179.185093 -11.201572 13.760764 7.376884 160.131401 66.423189 151.105939 26.099024 -40.395866 26.412497 179.988776 75.750795 0.00768 165.88781 7.521283 -63.624323 -72.720191 28.213532 157.273467 -137.333718 26.451909 56.761797 -179.779627 75.750831 -0.169855 -155.569243 82.193746 65.951267 36.687379 2.803912 -100.303493 -80.995747 -72.376603 -13.205906
-39.5188 67.97919999999999 -9.2468 5.892129 -84.820674 0.075025 -8.50064 4.868085 -106.009473 3.954854 6.592211 89.86675 -10.972979 25.418801 -27.635645 23.823554 -18.901584 -27.412538 -0.001129 0.0 -0.001042 -0.000904 0.0 -0.002826 -0.27328 1.606799 0.360938 64.044576 27.544233 -0.688141 -19.351096 -2.644529 38.103424 0.410447 -0.194292 0.207177 -10.083305 9.553765 2.367161 -113.773329 -7.335699 101.84339 -46.208697 39.652798 36.3183 84.731833 -62.522004 37.556458 78.536845 -80.919346 49.688443 -145.965407 35.158033 132.545453 -145.100491 -1.521809 -178.649386 -150.028201 78.832078 164.594677 -139.221722 -4.396693 -136.391277 -53.376421 -51.679805 -53.959921 159.211498 -46.728638 -170.136944 -134.331296 11.955442 144.086332 -163.253081 9.97919 -109.448475 -170.695919 -9.163543 -145.796987 178.927207 -16.453777 -89.422447 71.715513 5.872199 -19.940666 43.648079 38.804189 -34.059371 1.691932 12.362376 -0.297772 -89.035268 -81.393256 -59.760709 1.707582 12.989684 -2.453828 0.000929 -0.018548 0.005707 155.424286 -1.300582 -172.003724 -12.987142 44.34463 -10.760344 159.698232 52.341487 149.402778 179.998724 75.749558 0.001317 164.791827 5.954302 -180.0 -15.555856 -77.309093 -108.322111 -161.962203 -30.733995 90.090403 0.000157 8.4e-05 -0.000202 3.888853 6.228827 147.931808 37.668337 -34.884926 80.222955 77.323333 35.518441 150.848004
